<?xml version="1.0" encoding="UTF-8"?>
<!-- Generated by jsxcad -->
<!DOCTYPE svg PUBLIC "-//W3C//DTD SVG 1.1 Tiny//EN" "http://www.w3.org/Graphics/SVG/1.1/DTD/svg11-tiny.dtd">
<svg baseProfile="tiny" height="1.7650000000000015mm" width="20.100000000000016mm" viewBox="0 0 20.100000000000016 1.7650000000000015" version="1.1" stroke="black" stroke-width=".1" fill="none" xmlns="http://www.w3.org/2000/svg">
<path fill="#000000" stroke="#000000" d="M9 1.2215 L11.1 1.2215 L11.1 0.2215 L9 0.2215 z"/>
<path fill="#000000" stroke="#000000" d="M9.85132 1.94936 L9.94894 1.97714 L10.05 1.9865 L10.15106 1.97714 L10.24868 1.94936 L10.33954 1.90412 L10.42053 1.84295 L10.48891 1.76795 L10.54234 1.68166 L10.579 1.58701 L10.59765 1.48725 L10.59765 1.38575 L10.579 1.28599 L10.54234 1.19134 L10.48891 1.10505 L10.42053 1.03005 L10.33954 0.96888 L10.24868 0.92364 L10.15106 0.89586 L10.05 0.8865 L9.94894 0.89586 L9.85132 0.92364 L9.76046 0.96888 L9.67947 1.03005 L9.61109 1.10505 L9.55766 1.19134 L9.521 1.28599 L9.50235 1.38575 L9.50235 1.48725 L9.521 1.58701 L9.55766 1.68166 L9.61109 1.76795 L9.67947 1.84295 L9.76046 1.90412 z"/>
<path fill="#000000" stroke="#000000" d="M11 1.2215 L13.1 1.2215 L13.1 0.2215 L11 0.2215 z"/>
<path fill="#000000" stroke="#000000" d="M11.85132 1.94936 L11.94894 1.97714 L12.05 1.9865 L12.15106 1.97714 L12.24868 1.94936 L12.33954 1.90412 L12.42053 1.84295 L12.48891 1.76795 L12.54234 1.68166 L12.579 1.58701 L12.59765 1.48725 L12.59765 1.38575 L12.579 1.28599 L12.54234 1.19134 L12.48891 1.10505 L12.42053 1.03005 L12.33954 0.96888 L12.24868 0.92364 L12.15106 0.89586 L12.05 0.8865 L11.94894 0.89586 L11.85132 0.92364 L11.76046 0.96888 L11.67947 1.03005 L11.61109 1.10505 L11.55766 1.19134 L11.521 1.28599 L11.50235 1.38575 L11.50235 1.48725 L11.521 1.58701 L11.55766 1.68166 L11.61109 1.76795 L11.67947 1.84295 L11.76046 1.90412 z"/>
<path fill="#000000" stroke="#000000" d="M13 1.2215 L15.1 1.2215 L15.1 0.2215 L13 0.2215 z"/>
<path fill="#000000" stroke="#000000" d="M13.85132 1.94936 L13.94894 1.97714 L14.05 1.9865 L14.15106 1.97714 L14.24868 1.94936 L14.33954 1.90412 L14.42053 1.84295 L14.48891 1.76795 L14.54234 1.68166 L14.579 1.58701 L14.59765 1.48725 L14.59765 1.38575 L14.579 1.28599 L14.54234 1.19134 L14.48891 1.10505 L14.42053 1.03005 L14.33954 0.96888 L14.24868 0.92364 L14.15106 0.89586 L14.05 0.8865 L13.94894 0.89586 L13.85132 0.92364 L13.76046 0.96888 L13.67947 1.03005 L13.61109 1.10505 L13.55766 1.19134 L13.521 1.28599 L13.50235 1.38575 L13.50235 1.48725 L13.521 1.58701 L13.55766 1.68166 L13.61109 1.76795 L13.67947 1.84295 L13.76046 1.90412 z"/>
<path fill="#000000" stroke="#000000" d="M15 1.2215 L17.1 1.2215 L17.1 0.2215 L15 0.2215 z"/>
<path fill="#000000" stroke="#000000" d="M15.85132 1.94936 L15.94894 1.97714 L16.05 1.9865 L16.15106 1.97714 L16.24868 1.94936 L16.33954 1.90412 L16.42053 1.84295 L16.48891 1.76795 L16.54234 1.68166 L16.579 1.58701 L16.59765 1.48725 L16.59765 1.38575 L16.579 1.28599 L16.54234 1.19134 L16.48891 1.10505 L16.42053 1.03005 L16.33954 0.96888 L16.24868 0.92364 L16.15106 0.89586 L16.05 0.8865 L15.94894 0.89586 L15.85132 0.92364 L15.76046 0.96888 L15.67947 1.03005 L15.61109 1.10505 L15.55766 1.19134 L15.521 1.28599 L15.50235 1.38575 L15.50235 1.48725 L15.521 1.58701 L15.55766 1.68166 L15.61109 1.76795 L15.67947 1.84295 L15.76046 1.90412 z"/>
<path fill="#000000" stroke="#000000" d="M17 1.2215 L19.1 1.2215 L19.1 0.2215 L17 0.2215 z"/>
<path fill="#000000" stroke="#000000" d="M17.85132 1.94936 L17.94894 1.97714 L18.05 1.9865 L18.15106 1.97714 L18.24868 1.94936 L18.33954 1.90412 L18.42053 1.84295 L18.48891 1.76795 L18.54234 1.68166 L18.579 1.58701 L18.59765 1.48725 L18.59765 1.38575 L18.579 1.28599 L18.54234 1.19134 L18.48891 1.10505 L18.42053 1.03005 L18.33954 0.96888 L18.24868 0.92364 L18.15106 0.89586 L18.05 0.8865 L17.94894 0.89586 L17.85132 0.92364 L17.76046 0.96888 L17.67947 1.03005 L17.61109 1.10505 L17.55766 1.19134 L17.521 1.28599 L17.50235 1.38575 L17.50235 1.48725 L17.521 1.58701 L17.55766 1.68166 L17.61109 1.76795 L17.67947 1.84295 L17.76046 1.90412 z"/>
<path fill="#000000" stroke="#000000" d="M19 1.2215 L21.1 1.2215 L21.1 0.2215 L19 0.2215 z"/>
<path fill="#000000" stroke="#000000" d="M19.85132 1.94936 L19.94894 1.97714 L20.05 1.9865 L20.15106 1.97714 L20.24868 1.94936 L20.33954 1.90412 L20.42053 1.84295 L20.48891 1.76795 L20.54234 1.68166 L20.579 1.58701 L20.59765 1.48725 L20.59765 1.38575 L20.579 1.28599 L20.54234 1.19134 L20.48891 1.10505 L20.42053 1.03005 L20.33954 0.96888 L20.24868 0.92364 L20.15106 0.89586 L20.05 0.8865 L19.94894 0.89586 L19.85132 0.92364 L19.76046 0.96888 L19.67947 1.03005 L19.61109 1.10505 L19.55766 1.19134 L19.521 1.28599 L19.50235 1.38575 L19.50235 1.48725 L19.521 1.58701 L19.55766 1.68166 L19.61109 1.76795 L19.67947 1.84295 L19.76046 1.90412 z"/>
<path fill="#000000" stroke="#000000" d="M21 1.2215 L23.1 1.2215 L23.1 0.2215 L21 0.2215 z"/>
<path fill="#000000" stroke="#000000" d="M21.85132 1.94936 L21.94894 1.97714 L22.05 1.9865 L22.15106 1.97714 L22.24868 1.94936 L22.33954 1.90412 L22.42053 1.84295 L22.48891 1.76795 L22.54234 1.68166 L22.579 1.58701 L22.59765 1.48725 L22.59765 1.38575 L22.579 1.28599 L22.54234 1.19134 L22.48891 1.10505 L22.42053 1.03005 L22.33954 0.96888 L22.24868 0.92364 L22.15106 0.89586 L22.05 0.8865 L21.94894 0.89586 L21.85132 0.92364 L21.76046 0.96888 L21.67947 1.03005 L21.61109 1.10505 L21.55766 1.19134 L21.521 1.28599 L21.50235 1.38575 L21.50235 1.48725 L21.521 1.58701 L21.55766 1.68166 L21.61109 1.76795 L21.67947 1.84295 L21.76046 1.90412 z"/>
<path fill="#000000" stroke="#000000" d="M23 1.2215 L25.1 1.2215 L25.1 0.2215 L23 0.2215 z"/>
<path fill="#000000" stroke="#000000" d="M23.85132 1.94936 L23.94894 1.97714 L24.05 1.9865 L24.15106 1.97714 L24.24868 1.94936 L24.33954 1.90412 L24.42053 1.84295 L24.48891 1.76795 L24.54234 1.68166 L24.579 1.58701 L24.59765 1.48725 L24.59765 1.38575 L24.579 1.28599 L24.54234 1.19134 L24.48891 1.10505 L24.42053 1.03005 L24.33954 0.96888 L24.24868 0.92364 L24.15106 0.89586 L24.05 0.8865 L23.94894 0.89586 L23.85132 0.92364 L23.76046 0.96888 L23.67947 1.03005 L23.61109 1.10505 L23.55766 1.19134 L23.521 1.28599 L23.50235 1.38575 L23.50235 1.48725 L23.521 1.58701 L23.55766 1.68166 L23.61109 1.76795 L23.67947 1.84295 L23.76046 1.90412 z"/>
<path fill="#000000" stroke="#000000" d="M25 1.2215 L27.1 1.2215 L27.1 0.2215 L25 0.2215 z"/>
<path fill="#000000" stroke="#000000" d="M25.85132 1.94936 L25.94894 1.97714 L26.05 1.9865 L26.15106 1.97714 L26.24868 1.94936 L26.33954 1.90412 L26.42053 1.84295 L26.48891 1.76795 L26.54234 1.68166 L26.579 1.58701 L26.59765 1.48725 L26.59765 1.38575 L26.579 1.28599 L26.54234 1.19134 L26.48891 1.10505 L26.42053 1.03005 L26.33954 0.96888 L26.24868 0.92364 L26.15106 0.89586 L26.05 0.8865 L25.94894 0.89586 L25.85132 0.92364 L25.76046 0.96888 L25.67947 1.03005 L25.61109 1.10505 L25.55766 1.19134 L25.521 1.28599 L25.50235 1.38575 L25.50235 1.48725 L25.521 1.58701 L25.55766 1.68166 L25.61109 1.76795 L25.67947 1.84295 L25.76046 1.90412 z"/>
<path fill="#000000" stroke="#000000" d="M27 1.2215 L29.1 1.2215 L29.1 0.2215 L27 0.2215 z"/>
<path fill="#000000" stroke="#000000" d="M27.85132 1.94936 L27.94894 1.97714 L28.05 1.9865 L28.15106 1.97714 L28.24868 1.94936 L28.33954 1.90412 L28.42053 1.84295 L28.48891 1.76795 L28.54234 1.68166 L28.579 1.58701 L28.59765 1.48725 L28.59765 1.38575 L28.579 1.28599 L28.54234 1.19134 L28.48891 1.10505 L28.42053 1.03005 L28.33954 0.96888 L28.24868 0.92364 L28.15106 0.89586 L28.05 0.8865 L27.94894 0.89586 L27.85132 0.92364 L27.76046 0.96888 L27.67947 1.03005 L27.61109 1.10505 L27.55766 1.19134 L27.521 1.28599 L27.50235 1.38575 L27.50235 1.48725 L27.521 1.58701 L27.55766 1.68166 L27.61109 1.76795 L27.67947 1.84295 L27.76046 1.90412 z"/>
</svg>