<?xml version="1.0" encoding="UTF-8"?>
<!-- Generated by jsxcad -->
<!DOCTYPE svg PUBLIC "-//W3C//DTD SVG 1.1 Tiny//EN" "http://www.w3.org/Graphics/SVG/1.1/DTD/svg11-tiny.dtd">
<svg baseProfile="tiny" height="1.4800000000000013mm" width="20.100000000000016mm" viewBox="0 0 20.100000000000016 1.4800000000000013" version="1.1" stroke="black" stroke-width=".1" fill="none" xmlns="http://www.w3.org/2000/svg">
<path fill="#000000" stroke="#000000" d="M9 1.094 L11.1 1.094 L11.1 0.264 L9 0.264 z"/>
<path fill="#000000" stroke="#000000" d="M9.85132 1.70686 L9.94894 1.73464 L10.05 1.744 L10.15106 1.73464 L10.24868 1.70686 L10.33954 1.66162 L10.42053 1.60045 L10.48891 1.52545 L10.54234 1.43916 L10.579 1.34451 L10.59765 1.24475 L10.59765 1.14325 L10.579 1.04349 L10.54234 0.94884 L10.48891 0.86255 L10.42053 0.78755 L10.33954 0.72638 L10.24868 0.68114 L10.15106 0.65336 L10.05 0.644 L9.94894 0.65336 L9.85132 0.68114 L9.76046 0.72638 L9.67947 0.78755 L9.61109 0.86255 L9.55766 0.94884 L9.521 1.04349 L9.50235 1.14325 L9.50235 1.24475 L9.521 1.34451 L9.55766 1.43916 L9.61109 1.52545 L9.67947 1.60045 L9.76046 1.66162 z"/>
<path fill="#000000" stroke="#000000" d="M11 1.094 L13.1 1.094 L13.1 0.264 L11 0.264 z"/>
<path fill="#000000" stroke="#000000" d="M11.85132 1.70686 L11.94894 1.73464 L12.05 1.744 L12.15106 1.73464 L12.24868 1.70686 L12.33954 1.66162 L12.42053 1.60045 L12.48891 1.52545 L12.54234 1.43916 L12.579 1.34451 L12.59765 1.24475 L12.59765 1.14325 L12.579 1.04349 L12.54234 0.94884 L12.48891 0.86255 L12.42053 0.78755 L12.33954 0.72638 L12.24868 0.68114 L12.15106 0.65336 L12.05 0.644 L11.94894 0.65336 L11.85132 0.68114 L11.76046 0.72638 L11.67947 0.78755 L11.61109 0.86255 L11.55766 0.94884 L11.521 1.04349 L11.50235 1.14325 L11.50235 1.24475 L11.521 1.34451 L11.55766 1.43916 L11.61109 1.52545 L11.67947 1.60045 L11.76046 1.66162 z"/>
<path fill="#000000" stroke="#000000" d="M13 1.094 L15.1 1.094 L15.1 0.264 L13 0.264 z"/>
<path fill="#000000" stroke="#000000" d="M13.85132 1.70686 L13.94894 1.73464 L14.05 1.744 L14.15106 1.73464 L14.24868 1.70686 L14.33954 1.66162 L14.42053 1.60045 L14.48891 1.52545 L14.54234 1.43916 L14.579 1.34451 L14.59765 1.24475 L14.59765 1.14325 L14.579 1.04349 L14.54234 0.94884 L14.48891 0.86255 L14.42053 0.78755 L14.33954 0.72638 L14.24868 0.68114 L14.15106 0.65336 L14.05 0.644 L13.94894 0.65336 L13.85132 0.68114 L13.76046 0.72638 L13.67947 0.78755 L13.61109 0.86255 L13.55766 0.94884 L13.521 1.04349 L13.50235 1.14325 L13.50235 1.24475 L13.521 1.34451 L13.55766 1.43916 L13.61109 1.52545 L13.67947 1.60045 L13.76046 1.66162 z"/>
<path fill="#000000" stroke="#000000" d="M15 1.094 L17.1 1.094 L17.1 0.264 L15 0.264 z"/>
<path fill="#000000" stroke="#000000" d="M15.85132 1.70686 L15.94894 1.73464 L16.05 1.744 L16.15106 1.73464 L16.24868 1.70686 L16.33954 1.66162 L16.42053 1.60045 L16.48891 1.52545 L16.54234 1.43916 L16.579 1.34451 L16.59765 1.24475 L16.59765 1.14325 L16.579 1.04349 L16.54234 0.94884 L16.48891 0.86255 L16.42053 0.78755 L16.33954 0.72638 L16.24868 0.68114 L16.15106 0.65336 L16.05 0.644 L15.94894 0.65336 L15.85132 0.68114 L15.76046 0.72638 L15.67947 0.78755 L15.61109 0.86255 L15.55766 0.94884 L15.521 1.04349 L15.50235 1.14325 L15.50235 1.24475 L15.521 1.34451 L15.55766 1.43916 L15.61109 1.52545 L15.67947 1.60045 L15.76046 1.66162 z"/>
<path fill="#000000" stroke="#000000" d="M17 1.094 L19.1 1.094 L19.1 0.264 L17 0.264 z"/>
<path fill="#000000" stroke="#000000" d="M17.85132 1.70686 L17.94894 1.73464 L18.05 1.744 L18.15106 1.73464 L18.24868 1.70686 L18.33954 1.66162 L18.42053 1.60045 L18.48891 1.52545 L18.54234 1.43916 L18.579 1.34451 L18.59765 1.24475 L18.59765 1.14325 L18.579 1.04349 L18.54234 0.94884 L18.48891 0.86255 L18.42053 0.78755 L18.33954 0.72638 L18.24868 0.68114 L18.15106 0.65336 L18.05 0.644 L17.94894 0.65336 L17.85132 0.68114 L17.76046 0.72638 L17.67947 0.78755 L17.61109 0.86255 L17.55766 0.94884 L17.521 1.04349 L17.50235 1.14325 L17.50235 1.24475 L17.521 1.34451 L17.55766 1.43916 L17.61109 1.52545 L17.67947 1.60045 L17.76046 1.66162 z"/>
<path fill="#000000" stroke="#000000" d="M19 1.094 L21.1 1.094 L21.1 0.264 L19 0.264 z"/>
<path fill="#000000" stroke="#000000" d="M19.85132 1.70686 L19.94894 1.73464 L20.05 1.744 L20.15106 1.73464 L20.24868 1.70686 L20.33954 1.66162 L20.42053 1.60045 L20.48891 1.52545 L20.54234 1.43916 L20.579 1.34451 L20.59765 1.24475 L20.59765 1.14325 L20.579 1.04349 L20.54234 0.94884 L20.48891 0.86255 L20.42053 0.78755 L20.33954 0.72638 L20.24868 0.68114 L20.15106 0.65336 L20.05 0.644 L19.94894 0.65336 L19.85132 0.68114 L19.76046 0.72638 L19.67947 0.78755 L19.61109 0.86255 L19.55766 0.94884 L19.521 1.04349 L19.50235 1.14325 L19.50235 1.24475 L19.521 1.34451 L19.55766 1.43916 L19.61109 1.52545 L19.67947 1.60045 L19.76046 1.66162 z"/>
<path fill="#000000" stroke="#000000" d="M21 1.094 L23.1 1.094 L23.1 0.264 L21 0.264 z"/>
<path fill="#000000" stroke="#000000" d="M21.85132 1.70686 L21.94894 1.73464 L22.05 1.744 L22.15106 1.73464 L22.24868 1.70686 L22.33954 1.66162 L22.42053 1.60045 L22.48891 1.52545 L22.54234 1.43916 L22.579 1.34451 L22.59765 1.24475 L22.59765 1.14325 L22.579 1.04349 L22.54234 0.94884 L22.48891 0.86255 L22.42053 0.78755 L22.33954 0.72638 L22.24868 0.68114 L22.15106 0.65336 L22.05 0.644 L21.94894 0.65336 L21.85132 0.68114 L21.76046 0.72638 L21.67947 0.78755 L21.61109 0.86255 L21.55766 0.94884 L21.521 1.04349 L21.50235 1.14325 L21.50235 1.24475 L21.521 1.34451 L21.55766 1.43916 L21.61109 1.52545 L21.67947 1.60045 L21.76046 1.66162 z"/>
<path fill="#000000" stroke="#000000" d="M23 1.094 L25.1 1.094 L25.1 0.264 L23 0.264 z"/>
<path fill="#000000" stroke="#000000" d="M23.85132 1.70686 L23.94894 1.73464 L24.05 1.744 L24.15106 1.73464 L24.24868 1.70686 L24.33954 1.66162 L24.42053 1.60045 L24.48891 1.52545 L24.54234 1.43916 L24.579 1.34451 L24.59765 1.24475 L24.59765 1.14325 L24.579 1.04349 L24.54234 0.94884 L24.48891 0.86255 L24.42053 0.78755 L24.33954 0.72638 L24.24868 0.68114 L24.15106 0.65336 L24.05 0.644 L23.94894 0.65336 L23.85132 0.68114 L23.76046 0.72638 L23.67947 0.78755 L23.61109 0.86255 L23.55766 0.94884 L23.521 1.04349 L23.50235 1.14325 L23.50235 1.24475 L23.521 1.34451 L23.55766 1.43916 L23.61109 1.52545 L23.67947 1.60045 L23.76046 1.66162 z"/>
<path fill="#000000" stroke="#000000" d="M25 1.094 L27.1 1.094 L27.1 0.264 L25 0.264 z"/>
<path fill="#000000" stroke="#000000" d="M25.85132 1.70686 L25.94894 1.73464 L26.05 1.744 L26.15106 1.73464 L26.24868 1.70686 L26.33954 1.66162 L26.42053 1.60045 L26.48891 1.52545 L26.54234 1.43916 L26.579 1.34451 L26.59765 1.24475 L26.59765 1.14325 L26.579 1.04349 L26.54234 0.94884 L26.48891 0.86255 L26.42053 0.78755 L26.33954 0.72638 L26.24868 0.68114 L26.15106 0.65336 L26.05 0.644 L25.94894 0.65336 L25.85132 0.68114 L25.76046 0.72638 L25.67947 0.78755 L25.61109 0.86255 L25.55766 0.94884 L25.521 1.04349 L25.50235 1.14325 L25.50235 1.24475 L25.521 1.34451 L25.55766 1.43916 L25.61109 1.52545 L25.67947 1.60045 L25.76046 1.66162 z"/>
<path fill="#000000" stroke="#000000" d="M27 1.094 L29.1 1.094 L29.1 0.264 L27 0.264 z"/>
<path fill="#000000" stroke="#000000" d="M27.85132 1.70686 L27.94894 1.73464 L28.05 1.744 L28.15106 1.73464 L28.24868 1.70686 L28.33954 1.66162 L28.42053 1.60045 L28.48891 1.52545 L28.54234 1.43916 L28.579 1.34451 L28.59765 1.24475 L28.59765 1.14325 L28.579 1.04349 L28.54234 0.94884 L28.48891 0.86255 L28.42053 0.78755 L28.33954 0.72638 L28.24868 0.68114 L28.15106 0.65336 L28.05 0.644 L27.94894 0.65336 L27.85132 0.68114 L27.76046 0.72638 L27.67947 0.78755 L27.61109 0.86255 L27.55766 0.94884 L27.521 1.04349 L27.50235 1.14325 L27.50235 1.24475 L27.521 1.34451 L27.55766 1.43916 L27.61109 1.52545 L27.67947 1.60045 L27.76046 1.66162 z"/>
</svg>